<svg width="459" height="74" viewBox="0 0 459 74" fill="none" xmlns="http://www.w3.org/2000/svg">
<path d="M128.41 0.650391C106.73 0.650391 90.9699 17.0104 90.9699 36.9804V37.1804C90.9699 57.1504 106.52 73.3104 128.2 73.3104C149.88 73.3104 165.64 56.9504 165.64 36.9804V36.7804C165.64 16.8104 150.08 0.650391 128.41 0.650391ZM149.49 37.1804C149.49 49.2204 140.86 59.0604 128.41 59.0604C115.96 59.0604 107.13 49.0204 107.13 36.9804V36.7804C107.13 24.7404 115.76 14.9004 128.21 14.9004C140.66 14.9004 149.49 24.9404 149.49 36.9804V37.1804ZM31.8199 35.7904L55.4999 13.6004C57.0899 12.0704 57.8899 10.3504 57.8899 8.42039C57.8899 6.49039 57.1899 4.96039 55.7999 3.59039C54.4099 2.23039 52.7799 1.55039 50.9299 1.55039C49.0799 1.55039 47.4099 2.28039 45.9499 3.74039L15.8999 32.9004V9.12039C15.8999 6.80039 15.1999 4.94039 13.8099 3.55039C12.4199 2.16039 10.5299 1.46039 8.13989 1.46039C5.74989 1.46039 3.85988 2.16039 2.46988 3.55039C1.07988 4.94039 0.379883 6.80039 0.379883 9.12039V64.9404C0.379883 67.3304 1.07988 69.2204 2.46988 70.6104C3.85988 72.0004 5.74989 72.7004 8.13989 72.7004C10.5299 72.7004 12.4199 72.0004 13.8099 70.6104C15.1999 69.2204 15.8999 67.3304 15.8999 64.9404V39.6704L46.7499 69.8204C48.4099 71.5504 50.2999 72.4104 52.4199 72.4104C54.2799 72.4104 55.9199 71.7104 57.3499 70.3204C58.7799 68.9304 59.4899 67.3004 59.4899 65.4404C59.4899 63.5804 58.7299 61.9904 57.1999 60.4604L31.8199 35.7804V35.7904ZM234.62 1.86039H214.95C210.63 1.86039 207.22 5.27039 207.22 9.59039V64.3904C207.22 68.7104 210.63 72.1204 214.95 72.1204H234.62C256.7 72.1204 271.96 56.7604 271.96 36.9904V36.7904C271.96 17.0204 256.7 1.86039 234.62 1.86039ZM255.8 37.1904C255.8 49.6404 247.27 58.1704 234.62 58.1704H222.68V15.8204H234.62C247.27 15.8204 255.8 24.5504 255.8 37.0004V37.2004V37.1904ZM456.94 60.9704L436.64 36.6904L456.34 13.1104C457.53 11.7204 458.13 10.1904 458.13 8.53039C458.13 6.61039 457.38 4.93039 455.89 3.51039C454.4 2.08039 452.72 1.37039 450.86 1.37039C448.87 1.37039 447.15 2.23039 445.69 3.96039L427.68 25.9504L409.47 3.96039C408.01 2.24039 406.28 1.37039 404.29 1.37039C402.43 1.37039 400.76 2.08039 399.26 3.51039C397.77 4.94039 397.02 6.61039 397.02 8.53039C397.02 10.1204 397.65 11.6504 398.91 13.1104L418.61 36.6904L398.21 60.9704C397.02 62.3604 396.42 63.8904 396.42 65.5504C396.42 67.4704 397.17 69.1504 398.66 70.5704C400.15 72.0004 401.83 72.7104 403.69 72.7104C405.55 72.7104 407.31 71.8804 408.76 70.2204L427.67 47.3304L446.38 70.2204C447.77 71.8804 449.46 72.7104 451.46 72.7104C453.46 72.7104 455.09 72.0004 456.58 70.5704C458.07 69.1404 458.82 67.4704 458.82 65.5504C458.82 63.9604 458.19 62.4304 456.93 60.9704H456.94ZM354.89 14.0004C359.8 14.0004 362.25 11.9804 362.25 7.93039C362.25 3.88039 359.79 1.96039 354.89 1.96039H319.66C317.34 1.96039 315.55 2.59039 314.28 3.85039C313.02 5.11039 312.39 6.90039 312.39 9.22039V64.8404C312.39 67.1604 313.02 68.9604 314.28 70.2204C315.54 71.4804 317.33 72.1104 319.66 72.1104H354.89C359.8 72.1104 362.25 70.1204 362.25 66.1404C362.25 62.1604 359.79 60.0704 354.89 60.0704H327.53V42.4604H352.9C357.81 42.4604 360.26 40.4704 360.26 36.4904C360.26 32.5104 357.8 30.4204 352.9 30.4204H327.53V14.0004H354.89Z" fill="white"/>
</svg>
